# xmcd
#
# Track frame offsets:
#	150
#	13484
#	29167
#	42584
#	59466
#	78464
#	93339
#	105999
#	126262
#	143085
#	153939
#	164754
#	182688
#	198064
#	211407
#	227627
#	241917
#	256077
#
# Disc length: 3557 seconds
# Revision: 0
# Processed by: cddbd v1.5.2PL0 Copyright (c) Steve Scherf et al.
# Submitted via: dBpowerAMP V12.0
#
DISCID=f70de312
DTITLE=Alison Krauss - Too Late To Cry
DYEAR=1900
DGENRE=Country
TTITLE0=Too late to cry
TTITLE1=Foolish Heart
TTITLE2=Song For Life
TTITLE3=Dusty Miller
TTITLE4=If I Give My Heart
TTITLE5=In Your Eyes
TTITLE6=Don't Follow Me
TTITLE7=Gentle River
TTITLE8=On The Bordrerline
TTITLE9=Forgotten Pictures
TTITLE10=Sleep On
TTITLE11=New Favorite
TTITLE12=Forget About It
TTITLE13=Down The River To Pray
TTITLE14=You Say Nothing At All
TTITLE15=The Lucky One
TTITLE16=Let Me Touch You For Awhile
TTITLE17=Jewels For His Crown
EXTD=
EXTT0=
EXTT1=
EXTT2=
EXTT3=
EXTT4=
EXTT5=
EXTT6=
EXTT7=
EXTT8=
EXTT9=
EXTT10=
EXTT11=
EXTT12=
EXTT13=
EXTT14=
EXTT15=
EXTT16=
EXTT17=
PLAYORDER=
